<?xml version="1.0" encoding="UTF-8" standalone="no"?>
<!-- Created with Inkscape (http://www.inkscape.org/) -->

<svg
   xmlns:dc="http://purl.org/dc/elements/1.1/"
   xmlns:cc="http://creativecommons.org/ns#"
   xmlns:rdf="http://www.w3.org/1999/02/22-rdf-syntax-ns#"
   xmlns:svg="http://www.w3.org/2000/svg"
   xmlns="http://www.w3.org/2000/svg"
   xmlns:sodipodi="http://sodipodi.sourceforge.net/DTD/sodipodi-0.dtd"
   xmlns:inkscape="http://www.inkscape.org/namespaces/inkscape"
   width="725.43304"
   height="726.8689"
   id="svg2"
   version="1.1"
   inkscape:version="0.48.2 r9819"
   sodipodi:docname="boat.svg">
  <defs
     id="defs4">
    <linearGradient
       id="linearGradient4316">
      <stop
         style="stop-color:#000000;stop-opacity:1;"
         offset="0"
         id="stop4318" />
      <stop
         style="stop-color:#ffffff;stop-opacity:1;"
         offset="1"
         id="stop4320" />
    </linearGradient>
  </defs>
  <sodipodi:namedview
     id="base"
     pagecolor="#ffffff"
     bordercolor="#666666"
     borderopacity="1.0"
     inkscape:pageopacity="0.0"
     inkscape:pageshadow="2"
     inkscape:zoom="0.7"
     inkscape:cx="-38.12466"
     inkscape:cy="409.04212"
     inkscape:document-units="px"
     inkscape:current-layer="layer1"
     showgrid="true"
     inkscape:window-width="1920"
     inkscape:window-height="1082"
     inkscape:window-x="0"
     inkscape:window-y="0"
     inkscape:window-maximized="1"
     fit-margin-top="0"
     fit-margin-left="0"
     fit-margin-right="0"
     fit-margin-bottom="0">
    <inkscape:grid
       type="xygrid"
       id="grid2985"
       empspacing="5"
       visible="true"
       enabled="true"
       snapvisiblegridlinesonly="true" />
  </sodipodi:namedview>
  <metadata
     id="metadata7">
    <rdf:RDF>
      <cc:Work
         rdf:about="">
        <dc:format>image/svg+xml</dc:format>
        <dc:type
           rdf:resource="http://purl.org/dc/dcmitype/StillImage" />
        <dc:title></dc:title>
      </cc:Work>
    </rdf:RDF>
  </metadata>
  <g
     inkscape:label="Layer 1"
     inkscape:groupmode="layer"
     id="layer1"
     transform="translate(-212.62721,-694.64564)">
    <path
       style="fill:#ffffff;stroke:#000000;stroke-width:14.37500190999999994;stroke-linecap:butt;stroke-linejoin:miter;stroke-miterlimit:4;stroke-opacity:1;stroke-dasharray:none"
       d="m 347.62722,951.51457 57.50001,-143.75003 402.50004,0 57.50001,143.75003"
       id="path4083"
       inkscape:connector-curvature="0" />
    <path
       style="fill:#ffffff;stroke:#000000;stroke-width:14.37500190999999994;stroke-linecap:butt;stroke-linejoin:miter;stroke-miterlimit:4;stroke-opacity:1;stroke-dasharray:none"
       d="m 232.62721,951.51457 86.25001,229.99993 546.25006,0 57.5,-229.99993 z"
       id="path4081"
       inkscape:connector-curvature="0" />
    <path
       style="fill:#000000;stroke:#000000;stroke-width:1.43750012px;stroke-linecap:butt;stroke-linejoin:miter;stroke-opacity:1"
       d="m 462.62723,807.76454 28.75001,-86.25001 57.5,0 -28.75,86.25001 -57.50001,0"
       id="path4085"
       inkscape:connector-curvature="0" />
    <path
       inkscape:connector-curvature="0"
       id="path4087"
       d="m 548.87724,807.76455 28.75001,-86.25001 57.5,0 -28.75,86.25001 -57.50001,0"
       style="fill:#000000;stroke:#000000;stroke-width:1.43750012px;stroke-linecap:butt;stroke-linejoin:miter;stroke-opacity:1" />
    <path
       style="fill:#000000;stroke:#000000;stroke-width:1.43750012px;stroke-linecap:butt;stroke-linejoin:miter;stroke-opacity:1"
       d="m 635.12725,807.76455 28.75001,-86.25001 57.5,0 -28.75,86.25001 -57.50001,0"
       id="path4089"
       inkscape:connector-curvature="0" />
    <flowRoot
       xml:space="preserve"
       id="flowRoot4091"
       style="fill:black;stroke:none;stroke-opacity:1;stroke-width:1px;stroke-linejoin:miter;stroke-linecap:butt;fill-opacity:1;font-family:Sans;font-style:normal;font-weight:normal;font-size:40px;line-height:125%;letter-spacing:0px;word-spacing:0px"><flowRegion
         id="flowRegion4093"><rect
           id="rect4095"
           width="164.28572"
           height="91.428574"
           x="-1008.5714"
           y="138.29747" /></flowRegion><flowPara
         id="flowPara4097" /></flowRoot>    <path
       sodipodi:type="arc"
       style="fill:#000000;fill-opacity:1;stroke:#000000;stroke-width:10;stroke-linejoin:round;stroke-miterlimit:4;stroke-opacity:1;stroke-dasharray:none"
       id="path4099"
       sodipodi:cx="-560"
       sodipodi:cy="106.8689"
       sodipodi:rx="20"
       sodipodi:ry="20"
       d="m -540,106.8689 a 20,20 0 1 1 -40,0 20,20 0 1 1 40,0 z"
       transform="matrix(1.4375002,0,0,1.4375002,1181.3773,941.64052)" />
    <path
       transform="matrix(1.4375002,0,0,1.4375002,1296.3773,941.64052)"
       d="m -540,106.8689 a 20,20 0 1 1 -40,0 20,20 0 1 1 40,0 z"
       sodipodi:ry="20"
       sodipodi:rx="20"
       sodipodi:cy="106.8689"
       sodipodi:cx="-560"
       id="path4101"
       style="fill:#000000;fill-opacity:1;stroke:#000000;stroke-width:10;stroke-linejoin:round;stroke-miterlimit:4;stroke-opacity:1;stroke-dasharray:none"
       sodipodi:type="arc" />
    <path
       sodipodi:type="arc"
       style="fill:#000000;fill-opacity:1;stroke:#000000;stroke-width:10;stroke-linejoin:round;stroke-miterlimit:4;stroke-opacity:1;stroke-dasharray:none"
       id="path4103"
       sodipodi:cx="-560"
       sodipodi:cy="106.8689"
       sodipodi:rx="20"
       sodipodi:ry="20"
       d="m -540,106.8689 a 20,20 0 1 1 -40,0 20,20 0 1 1 40,0 z"
       transform="matrix(1.4375002,0,0,1.4375002,1411.3773,941.64052)" />
    <path
       style="fill:#0000ff;stroke:#000000;stroke-width:1px;stroke-linecap:butt;stroke-linejoin:miter;stroke-opacity:1"
       d="m 172.62721,1101.5145 c 15.49837,-41.9733 182.22716,-65.5395 200,0 6.95892,71.8112 103.55709,62.2731 142.60181,25.4328 89.13662,-77.8738 159.87701,-26.8626 196.77635,26.4957 87.09559,29.875 114.20422,-75.6968 200.62184,-71.9285 101.78029,6.5183 76.06661,82.5263 75.68173,156.4457 4.31827,243.5543 -90.18085,217.1239 -155.68173,223.5543 -144.36822,2.0046 -475.25369,-29.6605 -620,-20 -63.90436,-1.9882 -117.70966,-112.8511 -80,-220 -105.932102,2.8996 60.75851,-35.6214 60,-60"
       id="path5142"
       inkscape:connector-curvature="0"
       sodipodi:nodetypes="cccccccccc" />
  </g>
</svg>
