<?xml version="1.0" encoding="UTF-8" standalone="no"?>
<!-- Created with Inkscape (http://www.inkscape.org/) -->

<svg
   xmlns:dc="http://purl.org/dc/elements/1.1/"
   xmlns:cc="http://creativecommons.org/ns#"
   xmlns:rdf="http://www.w3.org/1999/02/22-rdf-syntax-ns#"
   xmlns:svg="http://www.w3.org/2000/svg"
   xmlns="http://www.w3.org/2000/svg"
   xmlns:sodipodi="http://sodipodi.sourceforge.net/DTD/sodipodi-0.dtd"
   xmlns:inkscape="http://www.inkscape.org/namespaces/inkscape"
   width="600"
   height="600"
   id="svg5055"
   version="1.1"
   inkscape:version="0.48.2 r9819"
   sodipodi:docname="car.svg">
  <defs
     id="defs5057" />
  <sodipodi:namedview
     id="base"
     pagecolor="#ffffff"
     bordercolor="#666666"
     borderopacity="1.0"
     inkscape:pageopacity="0.0"
     inkscape:pageshadow="2"
     inkscape:zoom="0.98994949"
     inkscape:cx="310.9136"
     inkscape:cy="230.01282"
     inkscape:document-units="px"
     inkscape:current-layer="layer1"
     showgrid="true"
     fit-margin-top="0"
     fit-margin-left="0"
     fit-margin-right="0"
     fit-margin-bottom="0"
     inkscape:window-width="1920"
     inkscape:window-height="1082"
     inkscape:window-x="0"
     inkscape:window-y="0"
     inkscape:window-maximized="1">
    <inkscape:grid
       type="xygrid"
       id="grid5063"
       empspacing="5"
       visible="true"
       enabled="true"
       snapvisiblegridlinesonly="true" />
  </sodipodi:namedview>
  <metadata
     id="metadata5060">
    <rdf:RDF>
      <cc:Work
         rdf:about="">
        <dc:format>image/svg+xml</dc:format>
        <dc:type
           rdf:resource="http://purl.org/dc/dcmitype/StillImage" />
      </cc:Work>
    </rdf:RDF>
  </metadata>
  <g
     inkscape:label="Layer 1"
     inkscape:groupmode="layer"
     id="layer1"
     transform="translate(50,-162.375)">
    <rect
       style="fill:#000000;fill-opacity:1;stroke:none"
       id="rect5071"
       width="580"
       height="580"
       x="-40"
       y="172.36218"
       ry="80" />
    <path
       sodipodi:type="arc"
       style="fill:none;stroke:#ffffff;stroke-width:30;stroke-miterlimit:4;stroke-opacity:1;stroke-dasharray:none"
       id="path5065"
       sodipodi:cx="105"
       sodipodi:cy="557.36218"
       sodipodi:rx="45"
       sodipodi:ry="45"
       d="m 150,557.36218 a 45,45 0 1 1 -90,0 45,45 0 1 1 90,0 z"
       transform="translate(0,-14.999999)" />
    <path
       d="m 150,557.36218 a 45,45 0 1 1 -90,0 45,45 0 1 1 90,0 z"
       sodipodi:ry="45"
       sodipodi:rx="45"
       sodipodi:cy="557.36218"
       sodipodi:cx="105"
       id="path5067"
       style="fill:none;stroke:#ffffff;stroke-width:30;stroke-miterlimit:4;stroke-opacity:1;stroke-dasharray:none"
       sodipodi:type="arc"
       transform="translate(305,-14.999999)" />
    <path
       id="path5581"
       style="fill:none;stroke:#ffffff;stroke-width:30;stroke-linecap:butt;stroke-linejoin:round;stroke-miterlimit:4;stroke-opacity:1;stroke-dasharray:none"
       d="m 320,337.36218 80,90 -160,0 0,-90 z m -290,210 30,-60 90,0 20,50 180,0 20,-50 80,0 20,50 40,0 0,-80 -110,-30 -80,-90 -240,0 -90,90 0,80 z" />
    <rect
       ry="80"
       y="172.36218"
       x="-40"
       height="580"
       width="580"
       id="rect5589"
       style="fill:none;stroke:#ffffff;stroke-width:20;stroke-miterlimit:4;stroke-opacity:1;stroke-dasharray:none" />
  </g>
</svg>
