<?xml version="1.0" encoding="UTF-8" standalone="no"?>
<!-- Created with Inkscape (http://www.inkscape.org/) -->

<svg
   xmlns:dc="http://purl.org/dc/elements/1.1/"
   xmlns:cc="http://creativecommons.org/ns#"
   xmlns:rdf="http://www.w3.org/1999/02/22-rdf-syntax-ns#"
   xmlns:svg="http://www.w3.org/2000/svg"
   xmlns="http://www.w3.org/2000/svg"
   xmlns:sodipodi="http://sodipodi.sourceforge.net/DTD/sodipodi-0.dtd"
   xmlns:inkscape="http://www.inkscape.org/namespaces/inkscape"
   width="725.43304"
   height="726.8689"
   id="svg2"
   version="1.1"
   inkscape:version="0.48.2 r9819"
   sodipodi:docname="idcard.svg">
  <defs
     id="defs4">
    <linearGradient
       id="linearGradient4316">
      <stop
         style="stop-color:#000000;stop-opacity:1;"
         offset="0"
         id="stop4318" />
      <stop
         style="stop-color:#ffffff;stop-opacity:1;"
         offset="1"
         id="stop4320" />
    </linearGradient>
  </defs>
  <sodipodi:namedview
     id="base"
     pagecolor="#ffffff"
     bordercolor="#666666"
     borderopacity="1.0"
     inkscape:pageopacity="0.0"
     inkscape:pageshadow="2"
     inkscape:zoom="0.7"
     inkscape:cx="-27.365093"
     inkscape:cy="409.04212"
     inkscape:document-units="px"
     inkscape:current-layer="g4698"
     showgrid="true"
     inkscape:window-width="1920"
     inkscape:window-height="1082"
     inkscape:window-x="0"
     inkscape:window-y="0"
     inkscape:window-maximized="1"
     fit-margin-top="0"
     fit-margin-left="0"
     fit-margin-right="0"
     fit-margin-bottom="0">
    <inkscape:grid
       type="xygrid"
       id="grid2985"
       empspacing="5"
       visible="true"
       enabled="true"
       snapvisiblegridlinesonly="true" />
  </sodipodi:namedview>
  <metadata
     id="metadata7">
    <rdf:RDF>
      <cc:Work
         rdf:about="">
        <dc:format>image/svg+xml</dc:format>
        <dc:type
           rdf:resource="http://purl.org/dc/dcmitype/StillImage" />
        <dc:title></dc:title>
      </cc:Work>
    </rdf:RDF>
  </metadata>
  <g
     inkscape:label="Layer 1"
     inkscape:groupmode="layer"
     id="layer1"
     transform="translate(-212.62721,-694.64564)">
    <g
       id="g4679">
      <path
         transform="matrix(1.5625,0,0,1.5625,117.62721,473.28189)"
         d="m 400,446.8689 a 160,160 0 1 1 -320,0 160,160 0 1 1 320,0 z"
         sodipodi:ry="160"
         sodipodi:rx="160"
         sodipodi:cy="446.8689"
         sodipodi:cx="240"
         id="path4151"
         style="fill:#000000;fill-opacity:1;stroke:#ffffff;stroke-opacity:1;stroke-width:6.4;stroke-miterlimit:4;stroke-dasharray:none"
         sodipodi:type="arc" />
      <g
         transform="matrix(0.84886505,-0.52860961,0.52860961,0.84886505,147.91783,251.12578)"
         style="fill:#ffffff"
         id="g4674">
        <g
           transform="matrix(9.1988354,0,0,9.1988354,4609.7972,-358.86347)"
           style="font-size:40px;font-style:normal;font-weight:normal;line-height:125%;letter-spacing:0px;word-spacing:0px;fill:#ffffff;fill-opacity:1;stroke:none;font-family:Sans"
           id="flowRoot4153">
          <path
             style="fill:#ffffff"
             d="m -512.80078,131.2684 0,4.16016 c -1.32815,-1.23695 -2.74742,-2.16143 -4.25781,-2.77344 -1.49742,-0.61195 -3.09247,-0.91794 -4.78516,-0.91797 -3.33335,3e-5 -5.88543,1.02216 -7.65625,3.06641 -1.77084,2.03127 -2.65626,4.97398 -2.65625,8.82813 -10e-6,3.84115 0.88541,6.78386 2.65625,8.82812 1.77082,2.03125 4.3229,3.04688 7.65625,3.04688 1.69269,0 3.28774,-0.30599 4.78516,-0.91797 1.51039,-0.61198 2.92966,-1.53646 4.25781,-2.77344 l 0,4.12109 c -1.38023,0.9375 -2.84508,1.64063 -4.39453,2.10938 -1.53648,0.46875 -3.16408,0.70312 -4.88281,0.70312 -4.41408,0 -7.89064,-1.34765 -10.42969,-4.04297 -2.53907,-2.70832 -3.8086,-6.39973 -3.8086,-11.07421 0,-4.68749 1.26953,-8.37889 3.8086,-11.07422 2.53905,-2.70831 6.01561,-4.06247 10.42969,-4.0625 1.74477,3e-5 3.38539,0.2344 4.92187,0.70312 1.54946,0.45576 3.00128,1.14586 4.35547,2.07031"
             id="path4162"
             inkscape:connector-curvature="0" />
        </g>
        <rect
           style="fill:#ffffff;fill-opacity:1;stroke:none"
           id="rect4164"
           width="40"
           height="360"
           x="-227.37279"
           y="781.51453"
           ry="0" />
      </g>
    </g>
    <g
       id="g4686"
       transform="matrix(0.8528513,0.52215386,-0.52215386,0.8528513,731.2194,-284.0866)">
      <path
         sodipodi:type="arc"
         style="fill:#000000;fill-opacity:1;stroke:#ffffff;stroke-width:6.4000001;stroke-miterlimit:4;stroke-opacity:1;stroke-dasharray:none"
         id="path4688"
         sodipodi:cx="240"
         sodipodi:cy="446.8689"
         sodipodi:rx="160"
         sodipodi:ry="160"
         d="m 400,446.8689 c 0,88.36556 -71.63444,160 -160,160 -88.36556,0 -160,-71.63444 -160,-160 0,-88.36556 71.63444,-160 160,-160 88.36556,0 160,71.63444 160,160 z"
         transform="matrix(1.5625,0,0,1.5625,117.62721,473.28189)" />
      <g
         id="g4690"
         style="fill:#ffffff"
         transform="matrix(0.84886505,-0.52860961,0.52860961,0.84886505,147.91783,251.12578)">
        <g
           id="g4692"
           style="font-size:40px;font-style:normal;font-weight:normal;line-height:125%;letter-spacing:0px;word-spacing:0px;fill:#ffffff;fill-opacity:1;stroke:none;font-family:Sans"
           transform="matrix(9.1988354,0,0,9.1988354,4609.7972,-358.86347)">
          <path
             inkscape:connector-curvature="0"
             id="path4694"
             d="m -512.80078,131.2684 0,4.16016 c -1.32815,-1.23695 -2.74742,-2.16143 -4.25781,-2.77344 -1.49742,-0.61195 -3.09247,-0.91794 -4.78516,-0.91797 -3.33335,3e-5 -5.88543,1.02216 -7.65625,3.06641 -1.77084,2.03127 -2.65626,4.97398 -2.65625,8.82813 -10e-6,3.84115 0.88541,6.78386 2.65625,8.82812 1.77082,2.03125 4.3229,3.04688 7.65625,3.04688 1.69269,0 3.28774,-0.30599 4.78516,-0.91797 1.51039,-0.61198 2.92966,-1.53646 4.25781,-2.77344 l 0,4.12109 c -1.38023,0.9375 -2.84508,1.64063 -4.39453,2.10938 -1.53648,0.46875 -3.16408,0.70312 -4.88281,0.70312 -4.41408,0 -7.89064,-1.34765 -10.42969,-4.04297 -2.53907,-2.70832 -3.8086,-6.39973 -3.8086,-11.07421 0,-4.68749 1.26953,-8.37889 3.8086,-11.07422 2.53905,-2.70831 6.01561,-4.06247 10.42969,-4.0625 1.74477,3e-5 3.38539,0.2344 4.92187,0.70312 1.54946,0.45576 3.00128,1.14586 4.35547,2.07031"
             style="fill:#ffffff" />
        </g>
        <rect
           ry="0"
           y="781.51453"
           x="-227.37279"
           height="360"
           width="40"
           id="rect4696"
           style="fill:#ffffff;fill-opacity:1;stroke:none" />
      </g>
    </g>
    <g
       transform="translate(207.33716,-27.203085)"
       id="g4698">
      <path
         transform="matrix(-0.90012854,1.2771746,-1.2771746,-0.90012854,1279.3876,1267.2321)"
         d="m 400,446.8689 a 160,160 0 1 1 -320,0 160,160 0 1 1 320,0 z"
         sodipodi:ry="160"
         sodipodi:rx="160"
         sodipodi:cy="446.8689"
         sodipodi:cx="240"
         id="path4700"
         style="fill:#000000;fill-opacity:1;stroke:#ffffff;stroke-width:6.4000001;stroke-miterlimit:4;stroke-opacity:1;stroke-dasharray:none"
         sodipodi:type="arc" />
      <g
         transform="matrix(0.91613072,0.40087965,-0.40087965,0.91613072,1056.5269,366.55669)"
         style="fill:#ffffff"
         id="g4702">
        <g
           transform="matrix(9.1988354,0,0,9.1988354,4609.7972,-358.86347)"
           style="font-size:40px;font-style:normal;font-weight:normal;line-height:125%;letter-spacing:0px;word-spacing:0px;fill:#ffffff;fill-opacity:1;stroke:none;font-family:Sans"
           id="g4704">
          <path
             style="fill:#ffffff"
             d="m -512.80078,131.2684 0,4.16016 c -1.32815,-1.23695 -2.74742,-2.16143 -4.25781,-2.77344 -1.49742,-0.61195 -3.09247,-0.91794 -4.78516,-0.91797 -3.33335,3e-5 -5.88543,1.02216 -7.65625,3.06641 -1.77084,2.03127 -2.65626,4.97398 -2.65625,8.82813 -10e-6,3.84115 0.88541,6.78386 2.65625,8.82812 1.77082,2.03125 4.3229,3.04688 7.65625,3.04688 1.69269,0 3.28774,-0.30599 4.78516,-0.91797 1.51039,-0.61198 2.92966,-1.53646 4.25781,-2.77344 l 0,4.12109 c -1.38023,0.9375 -2.84508,1.64063 -4.39453,2.10938 -1.53648,0.46875 -3.16408,0.70312 -4.88281,0.70312 -4.41408,0 -7.89064,-1.34765 -10.42969,-4.04297 -2.53907,-2.70832 -3.8086,-6.39973 -3.8086,-11.07421 0,-4.68749 1.26953,-8.37889 3.8086,-11.07422 2.53905,-2.70831 6.01561,-4.06247 10.42969,-4.0625 1.74477,3e-5 3.38539,0.2344 4.92187,0.70312 1.54946,0.45576 3.00128,1.14586 4.35547,2.07031"
             id="path4706"
             inkscape:connector-curvature="0" />
        </g>
        <rect
           style="fill:#ffffff;fill-opacity:1;stroke:none"
           id="rect4708"
           width="40"
           height="360"
           x="-227.37279"
           y="781.51453"
           ry="0" />
      </g>
    </g>
  </g>
</svg>
