<?xml version="1.0" encoding="UTF-8" standalone="no"?>
<!-- Created with Inkscape (http://www.inkscape.org/) -->

<svg
   xmlns:dc="http://purl.org/dc/elements/1.1/"
   xmlns:cc="http://creativecommons.org/ns#"
   xmlns:rdf="http://www.w3.org/1999/02/22-rdf-syntax-ns#"
   xmlns:svg="http://www.w3.org/2000/svg"
   xmlns="http://www.w3.org/2000/svg"
   xmlns:sodipodi="http://sodipodi.sourceforge.net/DTD/sodipodi-0.dtd"
   xmlns:inkscape="http://www.inkscape.org/namespaces/inkscape"
   width="725.43304"
   height="726.8689"
   id="svg2"
   version="1.1"
   inkscape:version="0.48.2 r9819"
   sodipodi:docname="door.svg">
  <defs
     id="defs4">
    <linearGradient
       id="linearGradient4316">
      <stop
         style="stop-color:#000000;stop-opacity:1;"
         offset="0"
         id="stop4318" />
      <stop
         style="stop-color:#ffffff;stop-opacity:1;"
         offset="1"
         id="stop4320" />
    </linearGradient>
  </defs>
  <sodipodi:namedview
     id="base"
     pagecolor="#ffffff"
     bordercolor="#666666"
     borderopacity="1.0"
     inkscape:pageopacity="0.0"
     inkscape:pageshadow="2"
     inkscape:zoom="0.7"
     inkscape:cx="479.77776"
     inkscape:cy="292.13177"
     inkscape:document-units="px"
     inkscape:current-layer="layer1"
     showgrid="true"
     inkscape:window-width="1920"
     inkscape:window-height="1082"
     inkscape:window-x="0"
     inkscape:window-y="0"
     inkscape:window-maximized="1"
     fit-margin-top="0"
     fit-margin-left="0"
     fit-margin-right="0"
     fit-margin-bottom="0">
    <inkscape:grid
       type="xygrid"
       id="grid2985"
       empspacing="5"
       visible="true"
       enabled="true"
       snapvisiblegridlinesonly="true" />
  </sodipodi:namedview>
  <metadata
     id="metadata7">
    <rdf:RDF>
      <cc:Work
         rdf:about="">
        <dc:format>image/svg+xml</dc:format>
        <dc:type
           rdf:resource="http://purl.org/dc/dcmitype/StillImage" />
        <dc:title></dc:title>
      </cc:Work>
    </rdf:RDF>
  </metadata>
  <g
     inkscape:label="Layer 1"
     inkscape:groupmode="layer"
     id="layer1"
     transform="translate(-212.62721,-694.64564)">
    <path
       style="fill:#dbdfd7;fill-opacity:1;stroke:#000000;stroke-width:35.43307114;stroke-miterlimit:4;stroke-opacity:1;stroke-dasharray:none"
       d="m 295.6875,712.36218 c -36.20071,0 -65.34375,29.14304 -65.34375,65.34375 l 0,559.31247 c 0,36.2009 29.14304,65.3438 65.34375,65.3438 l 559.3125,0 c 36.20071,0 65.34375,-29.1429 65.34375,-65.3438 l 0,-559.31247 c 0,-36.20071 -29.14304,-65.34375 -65.34375,-65.34375 z"
       id="rect3985"
       inkscape:connector-curvature="0"
       sodipodi:nodetypes="sssssccss" />
    <path
       style="fill:#f4b5af;fill-opacity:1;stroke:#000000;stroke-width:3.54330707;stroke-miterlimit:4;stroke-opacity:1;stroke-dasharray:none"
       d="m 920,792.375 -10,0 0,65 10,0 0,-65 z"
       id="path4149"
       inkscape:connector-curvature="0" />
    <path
       style="fill:#f4b5af;fill-opacity:1;stroke:#000000;stroke-width:3.54330707;stroke-miterlimit:4;stroke-opacity:1;stroke-dasharray:none"
       d="m 920,1072.375 -10,0 0,65 10,0 0,-65 z"
       id="path4176"
       inkscape:connector-curvature="0" />
    <path
       style="fill:#f4b5af;fill-opacity:1;stroke:#000000;stroke-width:3.54330707;stroke-miterlimit:4;stroke-opacity:1;stroke-dasharray:none"
       d="m 260.59375,722.375 c -0.60721,0.38104 -1.25031,0.72474 -1.84375,1.125 -1.73761,1.17197 -3.41888,2.42044 -5.03125,3.75 -1.61237,1.32956 -3.14864,2.74239 -4.625,4.21875 -1.47636,1.47636 -2.88919,3.01263 -4.21875,4.625 -1.32956,1.61237 -2.57803,3.29364 -3.75,5.03125 -1.17197,1.73761 -2.2464,3.52294 -3.25,5.375 -1.0036,1.85206 -1.92555,3.76303 -2.75,5.71875 -0.82445,1.95572 -1.55299,3.9514 -2.1875,6 -0.63451,2.0486 -1.19121,4.15055 -1.625,6.28125 -0.43379,2.1307 -0.74646,4.29799 -0.96875,6.5 C 230.12146,773.20201 230,775.45621 230,777.71875 l 0,9.65625 95,0 0,-65 -64.40625,0 z"
       id="rect3765"
       inkscape:connector-curvature="0" />
    <rect
       ry="0"
       y="722.36218"
       x="340"
       height="65"
       width="215"
       id="rect3767"
       style="fill:#f4b5af;fill-opacity:1;stroke:#000000;stroke-width:3.54330707;stroke-miterlimit:4;stroke-opacity:1;stroke-dasharray:none" />
    <rect
       style="fill:#f4b5af;fill-opacity:1;stroke:#000000;stroke-width:3.54330707;stroke-miterlimit:4;stroke-opacity:1;stroke-dasharray:none"
       id="rect3769"
       width="215"
       height="65"
       x="570"
       y="722.36218"
       ry="0" />
    <path
       style="fill:#f4b5af;fill-opacity:1;stroke:#000000;stroke-width:3.54330707;stroke-miterlimit:4;stroke-opacity:1;stroke-dasharray:none"
       d="m 230,792.375 0,65 205,0 0,-65 -205,0 z"
       id="rect3787"
       inkscape:connector-curvature="0" />
    <rect
       style="fill:#f4b5af;fill-opacity:1;stroke:#000000;stroke-width:3.54330707;stroke-miterlimit:4;stroke-opacity:1;stroke-dasharray:none"
       id="rect3789"
       width="215"
       height="65"
       x="450"
       y="792.36218"
       ry="0" />
    <rect
       ry="0"
       y="792.36218"
       x="680"
       height="65"
       width="215"
       id="rect3791"
       style="fill:#f4b5af;fill-opacity:1;stroke:#000000;stroke-width:3.54330707;stroke-miterlimit:4;stroke-opacity:1;stroke-dasharray:none" />
    <path
       style="fill:#f4b5af;fill-opacity:1;stroke:#000000;stroke-width:3.54330707;stroke-miterlimit:4;stroke-opacity:1;stroke-dasharray:none"
       d="m 230,862.375 0,65 95,0 0,-65 -95,0 z"
       id="rect3801"
       inkscape:connector-curvature="0" />
    <rect
       style="fill:#f4b5af;fill-opacity:1;stroke:#000000;stroke-width:3.54330707;stroke-miterlimit:4;stroke-opacity:1;stroke-dasharray:none"
       id="rect3803"
       width="215"
       height="65"
       x="340"
       y="862.36218"
       ry="0" />
    <rect
       ry="0"
       y="862.36218"
       x="570"
       height="65"
       width="215"
       id="rect3805"
       style="fill:#f4b5af;fill-opacity:1;stroke:#000000;stroke-width:3.54330707;stroke-miterlimit:4;stroke-opacity:1;stroke-dasharray:none" />
    <path
       style="fill:#f4b5af;fill-opacity:1;stroke:#000000;stroke-width:3.54330707;stroke-miterlimit:4;stroke-opacity:1;stroke-dasharray:none"
       d="m 920,927.375 0,-65 -120,0 0,65 120,0 z"
       id="rect3807"
       inkscape:connector-curvature="0" />
    <path
       style="fill:#f4b5af;fill-opacity:1;stroke:#000000;stroke-width:3.54330707;stroke-miterlimit:4;stroke-opacity:1;stroke-dasharray:none"
       d="m 230,932.375 0,65 205,0 0,-65 -205,0 z"
       id="rect3815"
       inkscape:connector-curvature="0" />
    <rect
       ry="0"
       y="932.36218"
       x="450"
       height="65"
       width="215"
       id="rect3817"
       style="fill:#f4b5af;fill-opacity:1;stroke:#000000;stroke-width:3.54330707;stroke-miterlimit:4;stroke-opacity:1;stroke-dasharray:none" />
    <rect
       style="fill:#f4b5af;fill-opacity:1;stroke:#000000;stroke-width:3.54330707;stroke-miterlimit:4;stroke-opacity:1;stroke-dasharray:none"
       id="rect3819"
       width="215"
       height="65"
       x="680"
       y="932.36218"
       ry="0" />
    <path
       style="fill:#f4b5af;fill-opacity:1;stroke:#000000;stroke-width:3.54330707;stroke-miterlimit:4;stroke-opacity:1;stroke-dasharray:none"
       d="m 920,997.375 0,-65 -10,0 0,65 10,0 z"
       id="rect3821"
       inkscape:connector-curvature="0" />
    <path
       style="fill:#f4b5af;fill-opacity:1;stroke:#000000;stroke-width:3.54330707;stroke-miterlimit:4;stroke-opacity:1;stroke-dasharray:none"
       d="m 230,1002.375 0,65 95,0 0,-65 -95,0 z"
       id="rect3829"
       inkscape:connector-curvature="0" />
    <rect
       ry="0"
       y="1002.3622"
       x="340"
       height="65"
       width="215"
       id="rect3831"
       style="fill:#f4b5af;fill-opacity:1;stroke:#000000;stroke-width:3.54330707;stroke-miterlimit:4;stroke-opacity:1;stroke-dasharray:none" />
    <rect
       style="fill:#f4b5af;fill-opacity:1;stroke:#000000;stroke-width:3.54330707;stroke-miterlimit:4;stroke-opacity:1;stroke-dasharray:none"
       id="rect3833"
       width="215"
       height="65"
       x="570"
       y="1002.3622"
       ry="0" />
    <path
       style="fill:#f4b5af;fill-opacity:1;stroke:#000000;stroke-width:3.54330707;stroke-miterlimit:4;stroke-opacity:1;stroke-dasharray:none"
       d="m 920,1067.375 0,-65 -120,0 0,65 120,0 z"
       id="rect3835"
       inkscape:connector-curvature="0" />
    <path
       style="fill:#f4b5af;fill-opacity:1;stroke:#000000;stroke-width:3.54330707;stroke-miterlimit:4;stroke-opacity:1;stroke-dasharray:none"
       d="m 230,1072.375 0,65 205,0 0,-65 -205,0 z"
       id="rect3843"
       inkscape:connector-curvature="0" />
    <rect
       style="fill:#f4b5af;fill-opacity:1;stroke:#000000;stroke-width:3.54330707;stroke-miterlimit:4;stroke-opacity:1;stroke-dasharray:none"
       id="rect3845"
       width="215"
       height="65"
       x="450"
       y="1072.3622"
       ry="0" />
    <rect
       ry="0"
       y="1072.3622"
       x="680"
       height="65"
       width="215"
       id="rect3847"
       style="fill:#f4b5af;fill-opacity:1;stroke:#000000;stroke-width:3.54330707;stroke-miterlimit:4;stroke-opacity:1;stroke-dasharray:none" />
    <path
       style="fill:#f4b5af;fill-opacity:1;stroke:#000000;stroke-width:3.54330707;stroke-miterlimit:4;stroke-opacity:1;stroke-dasharray:none"
       d="m 230,1142.375 0,65 95,0 0,-65 -95,0 z"
       id="rect3903"
       inkscape:connector-curvature="0" />
    <rect
       style="fill:#f4b5af;fill-opacity:1;stroke:#000000;stroke-width:3.54330707;stroke-miterlimit:4;stroke-opacity:1;stroke-dasharray:none"
       id="rect3905"
       width="215"
       height="65"
       x="340"
       y="1142.3622"
       ry="0" />
    <rect
       ry="0"
       y="1142.3622"
       x="570"
       height="65"
       width="215"
       id="rect3907"
       style="fill:#f4b5af;fill-opacity:1;stroke:#000000;stroke-width:3.54330707;stroke-miterlimit:4;stroke-opacity:1;stroke-dasharray:none" />
    <path
       style="fill:#f4b5af;fill-opacity:1;stroke:#000000;stroke-width:3.54330707;stroke-miterlimit:4;stroke-opacity:1;stroke-dasharray:none"
       d="m 920,1207.375 0,-65 -120,0 0,65 120,0 z"
       id="rect3909"
       inkscape:connector-curvature="0" />
    <path
       style="fill:#f4b5af;fill-opacity:1;stroke:#000000;stroke-width:3.54330707;stroke-miterlimit:4;stroke-opacity:1;stroke-dasharray:none"
       d="m 230,1212.375 0,65 205,0 0,-65 -205,0 z"
       id="rect3917"
       inkscape:connector-curvature="0" />
    <rect
       ry="0"
       y="1212.3622"
       x="450"
       height="65"
       width="215"
       id="rect3919"
       style="fill:#f4b5af;fill-opacity:1;stroke:#000000;stroke-width:3.54330707;stroke-miterlimit:4;stroke-opacity:1;stroke-dasharray:none" />
    <rect
       style="fill:#f4b5af;fill-opacity:1;stroke:#000000;stroke-width:3.54330707;stroke-miterlimit:4;stroke-opacity:1;stroke-dasharray:none"
       id="rect3921"
       width="215"
       height="65"
       x="680"
       y="1212.3622"
       ry="0" />
    <path
       style="fill:#f4b5af;fill-opacity:1;stroke:#000000;stroke-width:3.54330707;stroke-miterlimit:4;stroke-opacity:1;stroke-dasharray:none"
       d="m 920,1277.375 0,-65 -10,0 0,65 10,0 z"
       id="rect3923"
       inkscape:connector-curvature="0" />
    <path
       style="fill:#f4b5af;fill-opacity:1;stroke:#000000;stroke-width:3.54330707;stroke-miterlimit:4;stroke-opacity:1;stroke-dasharray:none"
       d="m 230,1282.375 0,54.6562 c 0,2.2626 0.12146,4.4855 0.34375,6.6876 0.12497,1.2379 0.33869,2.44 0.53125,3.6562 l 94.125,0 0,-65 -95,0 z"
       id="rect3931"
       inkscape:connector-curvature="0" />
    <rect
       ry="0"
       y="1282.3622"
       x="340"
       height="65"
       width="215"
       id="rect3933"
       style="fill:#f4b5af;fill-opacity:1;stroke:#000000;stroke-width:3.54330707;stroke-miterlimit:4;stroke-opacity:1;stroke-dasharray:none" />
    <rect
       style="fill:#f4b5af;fill-opacity:1;stroke:#000000;stroke-width:3.54330707;stroke-miterlimit:4;stroke-opacity:1;stroke-dasharray:none"
       id="rect3935"
       width="215"
       height="65"
       x="570"
       y="1282.3622"
       ry="0" />
    <path
       style="fill:#f4b5af;fill-opacity:1;stroke:#000000;stroke-width:3.54330707;stroke-miterlimit:4;stroke-opacity:1;stroke-dasharray:none"
       d="m 919.125,1347.375 c 0.19256,-1.2162 0.40628,-2.4183 0.53125,-3.6562 0.22229,-2.2021 0.34375,-4.425 0.34375,-6.6876 l 0,-54.6562 -120,0 0,65 119.125,0 z"
       id="rect3937"
       inkscape:connector-curvature="0" />
    <path
       style="fill:#f4b5af;fill-opacity:1;stroke:#000000;stroke-width:3.54330707;stroke-miterlimit:4;stroke-opacity:1;stroke-dasharray:none"
       d="m 231.875,1352.375 c 0.33086,1.3812 0.64592,2.78 1.0625,4.125 0.63451,2.0486 1.36305,4.0443 2.1875,6 0.82445,1.9557 1.7464,3.8667 2.75,5.7188 1.0036,1.852 2.07803,3.6373 3.25,5.375 1.17197,1.7376 2.42044,3.4188 3.75,5.0312 1.32956,1.6124 2.74239,3.1799 4.21875,4.6562 1.47636,1.4764 3.01263,2.858 4.625,4.1876 1.61237,1.3295 3.29364,2.578 5.03125,3.75 1.73761,1.1719 3.55419,2.2776 5.40625,3.2812 1.85206,1.0036 3.76303,1.9256 5.71875,2.75 1.95572,0.8244 3.9514,1.553 6,2.1875 2.0486,0.6345 4.15055,1.16 6.28125,1.5937 2.1307,0.4338 4.29799,0.7778 6.5,1 2.20201,0.2223 4.42496,0.3438 6.6875,0.3438 l 139.65625,0 0,-50 -203.125,0 z"
       id="rect3945"
       inkscape:connector-curvature="0" />
    <path
       style="fill:#f4b5af;fill-opacity:1;stroke:#000000;stroke-width:3.54330707;stroke-miterlimit:4;stroke-opacity:1;stroke-dasharray:none"
       d="m 450,1402.375 215,0 0,-50 -215,0 0,50 z"
       id="rect3947"
       inkscape:connector-curvature="0" />
    <path
       style="fill:#f4b5af;fill-opacity:1;stroke:#000000;stroke-width:3.54330707;stroke-miterlimit:4;stroke-opacity:1;stroke-dasharray:none"
       d="m 680,1402.375 174.65625,0 c 2.26254,0 4.48549,-0.1215 6.6875,-0.3438 2.20201,-0.2222 4.3693,-0.5349 6.5,-0.9687 2.1307,-0.4338 4.23265,-0.9905 6.28125,-1.625 2.0486,-0.6345 4.04428,-1.3631 6,-2.1875 1.95572,-0.8244 3.86669,-1.7464 5.71875,-2.75 1.85206,-1.0036 3.66864,-2.078 5.40625,-3.25 1.29283,-0.872 2.52573,-1.8213 3.75,-2.7812 l 0,-36.0938 -215,0 0,50 z"
       id="rect3949"
       inkscape:connector-curvature="0" />
    <path
       style="fill:#f4b5af;fill-opacity:1;stroke:#000000;stroke-width:3.54330707;stroke-miterlimit:4;stroke-opacity:1;stroke-dasharray:none"
       d="m 910,1371.75 c 0.72838,-1.162 1.46929,-2.3212 2.125,-3.5312 1.0036,-1.8521 1.92555,-3.7631 2.75,-5.7188 0.82445,-1.9557 1.55299,-3.9514 2.1875,-6 0.41658,-1.345 0.73164,-2.7438 1.0625,-4.125 l -8.125,0 0,19.375 z"
       id="rect3951"
       inkscape:connector-curvature="0" />
    <path
       style="fill:#f4b5af;fill-opacity:1;stroke:#000000;stroke-width:3.54330707;stroke-miterlimit:4;stroke-opacity:1;stroke-dasharray:none"
       d="m 920,787.375 0,-9.65625 c 0,-2.26254 -0.12146,-4.51673 -0.34375,-6.71875 -0.22229,-2.20202 -0.53495,-4.36929 -0.96875,-6.5 -0.4338,-2.13071 -0.99048,-4.23264 -1.625,-6.28125 -0.63452,-2.04861 -1.36304,-4.04427 -2.1875,-6 -0.82446,-1.95573 -1.74639,-3.86668 -2.75,-5.71875 -1.00361,-1.85207 -2.07802,-3.63738 -3.25,-5.375 -1.17198,-1.73762 -2.42043,-3.41886 -3.75,-5.03125 -1.32957,-1.61239 -2.74238,-3.14863 -4.21875,-4.625 -1.47637,-1.47637 -3.01261,-2.88918 -4.625,-4.21875 -1.61239,-1.32957 -3.29363,-2.57802 -5.03125,-3.75 -0.59345,-0.40027 -1.23654,-0.74396 -1.84375,-1.125 l -89.40625,0 0,65 120,0 z"
       id="rect3771"
       inkscape:connector-curvature="0" />
    <path
       style="fill:#000000;fill-opacity:1;stroke:#000000;stroke-width:18.27910423000000151;stroke-miterlimit:4;stroke-opacity:1;stroke-dasharray:none"
       d="m 780,1152.375 -440,254.0312 0,5.9688 440,0 0,-260 z"
       id="path4314"
       inkscape:connector-curvature="0" />
    <path
       style="fill:#d3bc5f;fill-opacity:1;stroke:#000000;stroke-width:18.27910423;stroke-miterlimit:4;stroke-opacity:1;stroke-dasharray:none"
       d="m 380,752.375 -40,0 0,654.0312 440,-114.0312 0,-540 -40,0 0,435.4375 -360,93.3125 0,-528.75 z"
       id="path4327"
       inkscape:connector-curvature="0" />
    <path
       style="fill:#d3bc5f;fill-opacity:1;stroke:#000000;stroke-width:18.27899933;stroke-miterlimit:4;stroke-opacity:0.4;stroke-dasharray:none"
       d="m 380,752.375 0,528.75 360,-93.3125 0,-435.4375 -360,0 z"
       id="rect4296"
       inkscape:connector-curvature="0" />
    <path
       style="fill:none;stroke:#000000;stroke-width:17.71653557;stroke-linecap:butt;stroke-linejoin:miter;stroke-miterlimit:4;stroke-opacity:1;stroke-dasharray:none"
       d="m 660,792.36218 60,-20"
       id="path4329"
       inkscape:connector-curvature="0" />
  </g>
</svg>
