<?xml version="1.0" encoding="UTF-8" standalone="no"?>
<!-- Created with Inkscape (http://www.inkscape.org/) -->

<svg
   xmlns:dc="http://purl.org/dc/elements/1.1/"
   xmlns:cc="http://creativecommons.org/ns#"
   xmlns:rdf="http://www.w3.org/1999/02/22-rdf-syntax-ns#"
   xmlns:svg="http://www.w3.org/2000/svg"
   xmlns="http://www.w3.org/2000/svg"
   xmlns:sodipodi="http://sodipodi.sourceforge.net/DTD/sodipodi-0.dtd"
   xmlns:inkscape="http://www.inkscape.org/namespaces/inkscape"
   width="381.5"
   height="381.5"
   id="svg2"
   version="1.1"
   inkscape:version="0.48.2 r9819"
   sodipodi:docname="trousers.svg">
  <defs
     id="defs4" />
  <sodipodi:namedview
     id="base"
     pagecolor="#ffffff"
     bordercolor="#666666"
     borderopacity="1.0"
     inkscape:pageopacity="0.0"
     inkscape:pageshadow="2"
     inkscape:zoom="0.7"
     inkscape:cx="31.464286"
     inkscape:cy="130.75"
     inkscape:document-units="px"
     inkscape:current-layer="g3788"
     showgrid="true"
     fit-margin-top="0"
     fit-margin-left="0"
     fit-margin-right="0"
     fit-margin-bottom="0"
     inkscape:window-width="1476"
     inkscape:window-height="923"
     inkscape:window-x="0"
     inkscape:window-y="0"
     inkscape:window-maximized="0">
    <inkscape:grid
       type="xygrid"
       id="grid2985"
       empspacing="5"
       visible="true"
       enabled="true"
       snapvisiblegridlinesonly="true" />
  </sodipodi:namedview>
  <metadata
     id="metadata7">
    <rdf:RDF>
      <cc:Work
         rdf:about="">
        <dc:format>image/svg+xml</dc:format>
        <dc:type
           rdf:resource="http://purl.org/dc/dcmitype/StillImage" />
        <dc:title></dc:title>
      </cc:Work>
    </rdf:RDF>
  </metadata>
  <g
     inkscape:label="Layer 1"
     inkscape:groupmode="layer"
     id="layer1"
     transform="translate(-89.25,-281.61218)">
    <rect
       style="fill:#ffffff;stroke:#000000;stroke-width:21.5;stroke-miterlimit:4;stroke-opacity:1;stroke-dasharray:none"
       id="rect2987"
       width="360"
       height="360"
       x="100"
       y="292.36218"
       ry="30.304577" />
    <g
       id="g3788"
       transform="matrix(0.37627615,-0.37627615,0.37627615,0.37627615,-19.407453,153.74809)"
       style="fill:#ffff00;fill-opacity:1">
      <path
         id="path3778"
         transform="translate(89.25,281.61218)"
         d="m -300,401.5 c -77.31987,0 -140,62.68013 -140,140 0,77.31987 62.68013,140 140,140 63.41441,0 116.97127,-42.17865 134.1875,-100 l 5.8125,0 40,40 40,-20 40,-40 60,40 60,-40 60,60 20,-40 40,40 40,-40 40,-40 -40,-40 -405.8125,0 C -183.02873,443.67865 -236.58559,401.5 -300,401.5 z"
         style="fill:#ffda00;fill-opacity:1;stroke:#000000;stroke-width:16.95555496000000062;stroke-miterlimit:4;stroke-opacity:1"
         inkscape:connector-curvature="0" />
      <path
         transform="translate(89.25,281.61218)"
         d="m -300,541.5 c 0,22.09139 -17.90861,40 -40,40 -22.09139,0 -40,-17.90861 -40,-40 0,-22.09139 17.90861,-40 40,-40 22.09139,0 40,17.90861 40,40 z"
         sodipodi:ry="40"
         sodipodi:rx="40"
         sodipodi:cy="541.5"
         sodipodi:cx="-340"
         id="path3786"
         style="fill:#ffffff;fill-opacity:1;stroke:#000000;stroke-width:10;stroke-miterlimit:4;stroke-opacity:1;stroke-dasharray:none"
         sodipodi:type="arc" />
    </g>
  </g>
</svg>
