<?xml version="1.0" encoding="UTF-8" standalone="no"?>
<!-- Created with Inkscape (http://www.inkscape.org/) -->

<svg
   xmlns:dc="http://purl.org/dc/elements/1.1/"
   xmlns:cc="http://creativecommons.org/ns#"
   xmlns:rdf="http://www.w3.org/1999/02/22-rdf-syntax-ns#"
   xmlns:svg="http://www.w3.org/2000/svg"
   xmlns="http://www.w3.org/2000/svg"
   xmlns:sodipodi="http://sodipodi.sourceforge.net/DTD/sodipodi-0.dtd"
   xmlns:inkscape="http://www.inkscape.org/namespaces/inkscape"
   width="401"
   height="401"
   id="svg2"
   version="1.1"
   inkscape:version="0.48.2 r9819"
   sodipodi:docname="player.svg"
   inkscape:export-filename="/home/jimm/projects/ld27/graphics/player.png"
   inkscape:export-xdpi="14.36"
   inkscape:export-ydpi="14.36">
  <defs
     id="defs4" />
  <sodipodi:namedview
     id="base"
     pagecolor="#ffffff"
     bordercolor="#666666"
     borderopacity="1.0"
     inkscape:pageopacity="0.0"
     inkscape:pageshadow="2"
     inkscape:zoom="1.4"
     inkscape:cx="65.215623"
     inkscape:cy="194.74103"
     inkscape:document-units="px"
     inkscape:current-layer="layer1"
     showgrid="true"
     inkscape:window-width="1920"
     inkscape:window-height="1082"
     inkscape:window-x="0"
     inkscape:window-y="0"
     inkscape:window-maximized="1"
     fit-margin-top="0"
     fit-margin-left="0"
     fit-margin-right="0"
     fit-margin-bottom="0">
    <inkscape:grid
       type="xygrid"
       id="grid2987"
       empspacing="5"
       visible="true"
       enabled="true"
       snapvisiblegridlinesonly="true"
       originx="-139.5px"
       originy="-419.5px" />
  </sodipodi:namedview>
  <metadata
     id="metadata7">
    <rdf:RDF>
      <cc:Work
         rdf:about="">
        <dc:format>image/svg+xml</dc:format>
        <dc:type
           rdf:resource="http://purl.org/dc/dcmitype/StillImage" />
        <dc:title />
      </cc:Work>
    </rdf:RDF>
  </metadata>
  <g
     inkscape:label="Layer 1"
     inkscape:groupmode="layer"
     id="layer1"
     transform="translate(-139.5,-231.86218)">
    <g
       id="g6066"
       style="fill:#000000"
       transform="translate(365.02921,25.609733)">
      <path
         inkscape:connector-curvature="0"
         id="path5907"
         d="m -31.25,212.96875 c -32.220434,-0.93573 -58.238132,36.2674 -45.90625,66.09375 9.574091,28.39661 47.936671,42.56628 73.375,25.65625 C 18.468629,291.23419 27.801651,258.3973 12.5625,236.3125 3.3530471,221.60066 -13.854446,212.1933 -31.25,212.96875 z"
         style="fill:#000000;fill-opacity:1" />
      <path
         inkscape:connector-curvature="0"
         id="path5911"
         d="m -134.4375,356.375 c 0.91821,28.46778 -1.90999,57.2127 1.5625,85.5 5.17937,16.45195 28.86198,24.07695 41.5625,11.34375 11.450154,-10.26272 9.807167,-27.04919 9.3125,-40.96875 0,-19.29167 0,-38.58333 0,-57.875 -17.479167,0 -34.95833,0 -52.4375,0 l 0,1 0,1 z"
         style="fill:#000000;fill-opacity:1" />
      <path
         inkscape:connector-curvature="0"
         id="path5913"
         d="m -109.09375,304.375 c -17.35759,0.34377 -28.70466,19.62691 -25.34375,35.6875 0,10.10417 0,20.20833 0,30.3125 17.95833,0 35.916667,0 53.875,0 -4.968435,-18.42841 4.361716,-40.09953 -7.96875,-56.5625 -4.949473,-6.04596 -12.69034,-9.8518 -20.5625,-9.4375 z"
         style="fill:#000000;fill-opacity:1" />
      <path
         inkscape:connector-curvature="0"
         id="rect5915"
         d="m 10.625,302.09375 c -28.394286,1.91319 -57.321401,-2.5744 -85.375,2.59375 -14.013175,6.38776 -17.791137,24.11955 -15.165034,38.12475 0.895991,31.42958 -2.579739,63.25824 2.290034,94.4065 6.380447,13.88582 23.902864,17.62654 37.780842,15.00269 C -24.588805,451.3263 1.4009394,455.34067 26.125,449.375 39.427749,442.34061 42.188626,425.10429 39.884277,411.43774 39.040988,380.0647 42.567719,348.30031 37.53125,317.21875 32.730584,307.25142 21.53804,301.45868 10.625,302.09375 z"
         style="fill:#000000;fill-opacity:1" />
      <path
         inkscape:connector-curvature="0"
         id="rect5917"
         d="m -56.125,402.375 c -22.063336,0.92709 -37.263444,24.79688 -33.8125,45.65625 1.035651,42.56689 -2.5417,85.40936 2.1875,127.78125 5.601077,18.5888 29.360278,31.32073 47.1875,21.1875 17.366016,-8.72191 23.331884,-30.87948 20.46875,-49.0625 -1.049938,-40.27241 2.831421,-80.88969 -2.45535,-120.91261 -4.779317,-13.83528 -18.340184,-25.5438 -33.5759,-24.64989 z"
         style="fill:#000000;fill-opacity:1" />
      <path
         inkscape:connector-curvature="0"
         id="rect5919"
         d="m 3.875,402.375 c -22.063336,0.92709 -37.263444,24.79688 -33.8125,45.65625 1.035651,42.56689 -2.5417,85.40936 2.1875,127.78125 C -22.148923,594.4013 1.6102776,607.13323 19.4375,597 36.803516,588.27809 42.769384,566.12052 39.90625,547.9375 38.856312,507.66509 42.737671,467.04781 37.4509,427.02489 32.671583,413.18961 19.110716,401.48109 3.875,402.375 z"
         style="fill:#000000;fill-opacity:1" />
      <path
         inkscape:connector-curvature="0"
         id="rect5921"
         d="m -90,404.375 c 0,19.33333 0,38.66667 0,58 43.333333,0 86.6666667,0 130,0 0,-20 0,-40 0,-60 -43.3333333,0 -86.666667,0 -130,0 l 0,1 0,1 z"
         style="fill:#000000;fill-opacity:1;stroke:none" />
      <path
         inkscape:connector-curvature="0"
         id="path5925"
         d="m 32,356.375 c 0.918206,28.46778 -1.909986,57.2127 1.5625,85.5 5.179373,16.45195 28.861982,24.07695 41.5625,11.34375 11.450154,-10.26272 9.807167,-27.04919 9.3125,-40.96875 0,-19.29167 0,-38.58333 0,-57.875 -17.479167,0 -34.958333,0 -52.4375,0 l 0,1 0,1 z"
         style="fill:#000000;fill-opacity:1" />
      <path
         inkscape:connector-curvature="0"
         id="path5927"
         d="M 56.21875,304.375 C 39.431215,305.54389 28.996405,324.1479 32,339.75 c 0,10.20833 0,20.41667 0,30.625 17.65625,0 35.3125,0 52.96875,0 -3.014127,-18.0242 4.265135,-38.11345 -5.5625,-54.625 -5.146524,-7.40216 -14.048057,-12.18204 -23.1875,-11.375 z"
         style="fill:#000000;fill-opacity:1" />
    </g>
    <g
       id="g6408"
       transform="translate(-5.0000057,5.938334)">
      <path
         transform="matrix(1,0,0,1.3367175,0,-121.81064)"
         d="m 380,302.36218 c 0,16.56855 -17.90861,30 -40,30 -22.09139,0 -40,-13.43145 -40,-30 0,-16.56854 17.90861,-30 40,-30 22.09139,0 40,13.43146 40,30 z"
         sodipodi:ry="30"
         sodipodi:rx="40"
         sodipodi:cy="302.36218"
         sodipodi:cx="340"
         id="path3759"
         style="fill:#ffffff;fill-opacity:1"
         sodipodi:type="arc" />
      <rect
         ry="19.897959"
         y="332.36218"
         x="240"
         height="139.28572"
         width="36.42857"
         id="rect3761"
         style="fill:#ffffff;fill-opacity:1" />
      <rect
         ry="16.249998"
         y="332.36218"
         x="290"
         height="129.99998"
         width="110"
         id="rect3765"
         style="fill:#ffffff;fill-opacity:1" />
      <rect
         ry="29.704142"
         y="432.36218"
         x="290"
         height="178.22485"
         width="50"
         id="rect3767"
         style="fill:#ffffff;fill-opacity:1" />
      <rect
         ry="29.704142"
         y="432.36218"
         x="350"
         height="178.22485"
         width="50"
         id="rect3769"
         style="fill:#ffffff;fill-opacity:1" />
      <rect
         style="fill:#ffffff;fill-opacity:1"
         id="rect3771"
         width="36.42857"
         height="139.28572"
         x="413.57144"
         y="332.36218"
         ry="19.897959" />
      <g
         id="flowRoot4458"
         style="font-size:40px;font-style:normal;font-weight:normal;line-height:125%;letter-spacing:0px;word-spacing:0px;fill:#000000;fill-opacity:1;stroke:none;font-family:Sans"
         transform="matrix(2.2848181,0,0,1.962406,-103.09575,176.08939)">
        <path
           id="path4467"
           d="m 191.19922,63.752779 3.96484,0 0,4.960937 -3.96484,0 0,-4.960937 m 3.84765,-2.871094 -3.73046,0 0,-3.007812 c -1e-5,-1.315092 0.18228,-2.39582 0.54687,-3.242188 0.36458,-0.846339 1.1328,-1.829411 2.30469,-2.949219 l 1.75781,-1.738281 c 0.74218,-0.690085 1.27603,-1.341126 1.60156,-1.953125 0.33853,-0.611958 0.5078,-1.236957 0.50782,-1.875 -2e-5,-1.15883 -0.42971,-2.096329 -1.28907,-2.8125 -0.84636,-0.71612 -1.97266,-1.074192 -3.3789,-1.074219 -1.02866,2.7e-5 -2.12892,0.227891 -3.30078,0.683594 -1.15886,0.455755 -2.3698,1.119817 -3.63282,1.992188 l 0,-3.671875 c 1.22396,-0.74216 2.46094,-1.295544 3.71094,-1.660157 1.26301,-0.364553 2.5651,-0.546845 3.90625,-0.546875 2.39582,3e-5 4.31639,0.63154 5.76172,1.894532 1.45832,1.263047 2.18748,2.929712 2.1875,5 -2e-5,0.989605 -0.23439,1.933614 -0.70313,2.832031 -0.46876,0.885436 -1.28907,1.888039 -2.46093,3.007812 l -1.71875,1.679688 c -0.61199,0.611994 -1.04819,1.093764 -1.3086,1.445312 -0.2474,0.338556 -0.42319,0.670587 -0.52734,0.996094 -0.0781,0.27345 -0.13673,0.605481 -0.17578,0.996094 -0.0391,0.390636 -0.0586,0.92449 -0.0586,1.601562 l 0,2.402344"
           inkscape:connector-curvature="0" />
      </g>
    </g>
  </g>
</svg>
