<?xml version="1.0" encoding="UTF-8" standalone="no"?>
<!-- Created with Inkscape (http://www.inkscape.org/) -->

<svg
   xmlns:dc="http://purl.org/dc/elements/1.1/"
   xmlns:cc="http://creativecommons.org/ns#"
   xmlns:rdf="http://www.w3.org/1999/02/22-rdf-syntax-ns#"
   xmlns:svg="http://www.w3.org/2000/svg"
   xmlns="http://www.w3.org/2000/svg"
   xmlns:sodipodi="http://sodipodi.sourceforge.net/DTD/sodipodi-0.dtd"
   xmlns:inkscape="http://www.inkscape.org/namespaces/inkscape"
   width="401"
   height="401"
   id="svg2"
   version="1.1"
   inkscape:version="0.48.2 r9819"
   sodipodi:docname="player-dressed.svg"
   inkscape:export-filename="/home/jimm/projects/ld27/graphics/player.png"
   inkscape:export-xdpi="14.36"
   inkscape:export-ydpi="14.36">
  <defs
     id="defs4" />
  <sodipodi:namedview
     id="base"
     pagecolor="#ffffff"
     bordercolor="#666666"
     borderopacity="1.0"
     inkscape:pageopacity="0.0"
     inkscape:pageshadow="2"
     inkscape:zoom="1.4"
     inkscape:cx="28.429909"
     inkscape:cy="194.74103"
     inkscape:document-units="px"
     inkscape:current-layer="layer1"
     showgrid="true"
     inkscape:window-width="1920"
     inkscape:window-height="1082"
     inkscape:window-x="0"
     inkscape:window-y="0"
     inkscape:window-maximized="1"
     fit-margin-top="0"
     fit-margin-left="0"
     fit-margin-right="0"
     fit-margin-bottom="0">
    <inkscape:grid
       type="xygrid"
       id="grid2987"
       empspacing="5"
       visible="true"
       enabled="true"
       snapvisiblegridlinesonly="true"
       originx="-139.5px"
       originy="-419.5px" />
  </sodipodi:namedview>
  <metadata
     id="metadata7">
    <rdf:RDF>
      <cc:Work
         rdf:about="">
        <dc:format>image/svg+xml</dc:format>
        <dc:type
           rdf:resource="http://purl.org/dc/dcmitype/StillImage" />
        <dc:title></dc:title>
      </cc:Work>
    </rdf:RDF>
  </metadata>
  <g
     inkscape:label="Layer 1"
     inkscape:groupmode="layer"
     id="layer1"
     transform="translate(-139.5,-231.86218)">
    <rect
       style="fill:#000000;fill-opacity:1;fill-rule:evenodd;stroke:#000000;stroke-width:1px;stroke-linecap:butt;stroke-linejoin:miter;stroke-opacity:1"
       id="rect2989"
       width="400"
       height="400"
       x="140"
       y="232.36218"
       ry="60" />
    <path
       sodipodi:type="arc"
       style="fill:#ffffff;fill-opacity:1"
       id="path3759"
       sodipodi:cx="340"
       sodipodi:cy="302.36218"
       sodipodi:rx="40"
       sodipodi:ry="30"
       d="m 380,302.36218 a 40,30 0 1 1 -80,0 40,30 0 1 1 80,0 z"
       transform="matrix(1,0,0,1.3367175,0,-121.81064)" />
    <g
       id="g5007"
       transform="translate(3.5625,0)">
      <path
         transform="translate(139.5,231.86218)"
         id="path5005"
         d="m 136.9375,150.5 -36.4375,0 0,69.375 c 0,11.02347 8.12804,19.90625 18.21875,19.90625 10.09071,0 18.21875,-8.88278 18.21875,-19.90625 l 0,-69.375 z"
         style="fill:#ffffff;fill-opacity:1"
         inkscape:connector-curvature="0" />
      <path
         transform="translate(139.5,231.86218)"
         id="rect3761"
         d="m 100.5,120.40625 0,30.09375 36.4375,0 0,-30.09375 C 136.9375,109.38278 128.80946,100.5 118.71875,100.5 108.62804,100.5 100.5,109.38278 100.5,120.40625 z"
         style="fill:#008000;fill-opacity:1"
         inkscape:connector-curvature="0" />
    </g>
    <rect
       style="fill:#008000;fill-opacity:1"
       id="rect3765"
       width="110"
       height="129.99998"
       x="290"
       y="332.36218"
       ry="16.249998" />
    <rect
       style="fill:#ffffff;fill-opacity:1"
       id="rect3767"
       width="50"
       height="178.22485"
       x="290"
       y="432.36218"
       ry="29.704142" />
    <rect
       style="fill:#ffffff;fill-opacity:1"
       id="rect3769"
       width="50"
       height="178.22485"
       x="350"
       y="432.36218"
       ry="29.704142" />
    <g
       transform="matrix(2.2848181,0,0,1.962406,-103.09575,176.08939)"
       style="font-size:40px;font-style:normal;font-weight:normal;line-height:125%;letter-spacing:0px;word-spacing:0px;fill:#000000;fill-opacity:1;stroke:none;font-family:Sans"
       id="flowRoot4458">
      <path
         d="m 191.19922,63.752779 3.96484,0 0,4.960937 -3.96484,0 0,-4.960937 m 3.84765,-2.871094 -3.73046,0 0,-3.007812 c -1e-5,-1.315092 0.18228,-2.39582 0.54687,-3.242188 0.36458,-0.846339 1.1328,-1.829411 2.30469,-2.949219 l 1.75781,-1.738281 c 0.74218,-0.690085 1.27603,-1.341126 1.60156,-1.953125 0.33853,-0.611958 0.5078,-1.236957 0.50782,-1.875 -2e-5,-1.15883 -0.42971,-2.096329 -1.28907,-2.8125 -0.84636,-0.71612 -1.97266,-1.074192 -3.3789,-1.074219 -1.02866,2.7e-5 -2.12892,0.227891 -3.30078,0.683594 -1.15886,0.455755 -2.3698,1.119817 -3.63282,1.992188 l 0,-3.671875 c 1.22396,-0.74216 2.46094,-1.295544 3.71094,-1.660157 1.26301,-0.364553 2.5651,-0.546845 3.90625,-0.546875 2.39582,3e-5 4.31639,0.63154 5.76172,1.894532 1.45832,1.263047 2.18748,2.929712 2.1875,5 -2e-5,0.989605 -0.23439,1.933614 -0.70313,2.832031 -0.46876,0.885436 -1.28907,1.888039 -2.46093,3.007812 l -1.71875,1.679688 c -0.61199,0.611994 -1.04819,1.093764 -1.3086,1.445312 -0.2474,0.338556 -0.42319,0.670587 -0.52734,0.996094 -0.0781,0.27345 -0.13673,0.605481 -0.17578,0.996094 -0.0391,0.390636 -0.0586,0.92449 -0.0586,1.601562 l 0,2.402344"
         style=""
         id="path4467" />
    </g>
    <rect
       style="fill:#008000;fill-opacity:1;stroke:none;stroke-width:17.71699999999999875;stroke-miterlimit:4;stroke-opacity:0.40000000000000002;stroke-dasharray:none"
       id="rect4998"
       width="110"
       height="40"
       x="150.5"
       y="200.5"
       transform="translate(139.5,231.86218)"
       ry="0" />
    <g
       id="g5011"
       transform="translate(170,0)">
      <path
         style="fill:#ffffff;fill-opacity:1"
         d="m 136.9375,150.5 -36.4375,0 0,69.375 c 0,11.02347 8.12804,19.90625 18.21875,19.90625 10.09071,0 18.21875,-8.88278 18.21875,-19.90625 l 0,-69.375 z"
         id="path5013"
         transform="translate(139.5,231.86218)"
         inkscape:connector-curvature="0" />
      <path
         style="fill:#008000;fill-opacity:1"
         d="m 100.5,120.40625 0,30.09375 36.4375,0 0,-30.09375 C 136.9375,109.38278 128.80946,100.5 118.71875,100.5 108.62804,100.5 100.5,109.38278 100.5,120.40625 z"
         id="path5015"
         transform="translate(139.5,231.86218)"
         inkscape:connector-curvature="0" />
    </g>
  </g>
</svg>
