<?xml version="1.0" encoding="UTF-8" standalone="no"?>
<!-- Created with Inkscape (http://www.inkscape.org/) -->

<svg
   xmlns:dc="http://purl.org/dc/elements/1.1/"
   xmlns:cc="http://creativecommons.org/ns#"
   xmlns:rdf="http://www.w3.org/1999/02/22-rdf-syntax-ns#"
   xmlns:svg="http://www.w3.org/2000/svg"
   xmlns="http://www.w3.org/2000/svg"
   xmlns:sodipodi="http://sodipodi.sourceforge.net/DTD/sodipodi-0.dtd"
   xmlns:inkscape="http://www.inkscape.org/namespaces/inkscape"
   width="725.43304"
   height="726.8689"
   id="svg2"
   version="1.1"
   inkscape:version="0.48.2 r9819"
   sodipodi:docname="teller.svg">
  <defs
     id="defs4">
    <linearGradient
       id="linearGradient4316">
      <stop
         style="stop-color:#000000;stop-opacity:1;"
         offset="0"
         id="stop4318" />
      <stop
         style="stop-color:#ffffff;stop-opacity:1;"
         offset="1"
         id="stop4320" />
    </linearGradient>
  </defs>
  <sodipodi:namedview
     id="base"
     pagecolor="#ffffff"
     bordercolor="#666666"
     borderopacity="1.0"
     inkscape:pageopacity="0.0"
     inkscape:pageshadow="2"
     inkscape:zoom="0.7"
     inkscape:cx="225.49205"
     inkscape:cy="409.04212"
     inkscape:document-units="px"
     inkscape:current-layer="layer1"
     showgrid="true"
     inkscape:window-width="1920"
     inkscape:window-height="1082"
     inkscape:window-x="0"
     inkscape:window-y="0"
     inkscape:window-maximized="1"
     fit-margin-top="0"
     fit-margin-left="0"
     fit-margin-right="0"
     fit-margin-bottom="0">
    <inkscape:grid
       type="xygrid"
       id="grid2985"
       empspacing="5"
       visible="true"
       enabled="true"
       snapvisiblegridlinesonly="true" />
  </sodipodi:namedview>
  <metadata
     id="metadata7">
    <rdf:RDF>
      <cc:Work
         rdf:about="">
        <dc:format>image/svg+xml</dc:format>
        <dc:type
           rdf:resource="http://purl.org/dc/dcmitype/StillImage" />
        <dc:title></dc:title>
      </cc:Work>
    </rdf:RDF>
  </metadata>
  <g
     inkscape:label="Layer 1"
     inkscape:groupmode="layer"
     id="layer1"
     transform="translate(-212.62721,-694.64564)">
    <path
       style="fill:#ffffff;fill-opacity:1;stroke:#000000;stroke-width:35.43307114000000269;stroke-miterlimit:4;stroke-opacity:1;stroke-dasharray:none"
       d="m 295.6875,712.36218 c -36.20071,0 -65.34375,29.14304 -65.34375,65.34375 l 0,559.31247 c 0,36.2009 29.14304,65.3438 65.34375,65.3438 l 559.3125,0 c 36.20071,0 65.34375,-29.1429 65.34375,-65.3438 l 0,-559.31247 c 0,-36.20071 -29.14304,-65.34375 -65.34375,-65.34375 z"
       id="rect3985"
       inkscape:connector-curvature="0"
       sodipodi:nodetypes="sssssccss" />
    <rect
       style="fill:#000000;fill-opacity:1;stroke:#000000;stroke-width:14.48413658;stroke-linejoin:round;stroke-miterlimit:4;stroke-opacity:1;stroke-dasharray:none"
       id="rect3952"
       width="400"
       height="300"
       x="375.34375"
       y="1101.5145"
       ry="54.545471" />
    <path
       sodipodi:type="arc"
       style="fill:#000000;fill-opacity:1;stroke:#000000;stroke-width:10;stroke-linejoin:round;stroke-miterlimit:4;stroke-opacity:1;stroke-dasharray:none"
       id="path4008"
       sodipodi:cx="390"
       sodipodi:cy="256.8689"
       sodipodi:rx="110"
       sodipodi:ry="110"
       d="m 500,256.8689 a 110,110 0 1 1 -220,0 110,110 0 1 1 220,0 z"
       transform="translate(185.34375,674.64564)" />
    <g
       transform="matrix(2.288946,0,0,1.5411084,-141.01589,570.55712)"
       style="font-size:40px;font-style:normal;font-weight:normal;line-height:125%;letter-spacing:0px;word-spacing:0px;fill:#ffffff;fill-opacity:1;stroke:none;font-family:Sans"
       id="flowRoot4010">
      <path
         d="m 315.8125,298.69594 -7.03125,0 -0.0703,-21.16406 c -4.92191,-0.0937 -9.84378,-0.65625 -14.76563,-1.6875 -4.92189,-1.07812 -9.8672,-2.67187 -14.83594,-4.78125 l 0,-12.65625 c 4.78124,3.00002 9.60936,5.27345 14.48438,6.82031 4.92184,1.50001 9.98434,2.27345 15.1875,2.32031 l 0,-32.0625 c -10.35941,-1.68745 -17.90627,-4.54682 -22.64063,-8.57812 -4.68751,-4.0312 -7.03126,-9.56244 -7.03125,-16.59375 -10e-6,-7.64055 2.55468,-13.66398 7.66407,-18.07031 5.10935,-4.40616 12.44528,-6.93741 22.00781,-7.59375 l 0,-16.52344 7.03125,0 0,16.3125 c 4.35932,0.18759 8.57807,0.65634 12.65625,1.40625 4.07806,0.70322 8.06243,1.68759 11.95312,2.95312 l 0,12.30469 c -3.89069,-1.96867 -7.8985,-3.49211 -12.02343,-4.57031 -4.07818,-1.07804 -8.27349,-1.71086 -12.58594,-1.89844 l 0,30.02344 c 10.64057,1.64068 18.46868,4.57036 23.48437,8.78906 5.01555,4.21879 7.52336,9.98441 7.52344,17.29688 -8e-5,7.92189 -2.67195,14.1797 -8.01562,18.77343 -5.29694,4.54688 -12.961,7.17188 -22.99219,7.875 l 0,21.30469 m -7.03125,-75.30469 0,-28.82812 c -5.43754,0.60946 -9.58597,2.15633 -12.44531,4.64062 -2.8594,2.48446 -4.28909,5.78914 -4.28907,9.91407 -2e-5,4.03131 1.31248,7.17193 3.9375,9.42187 2.67185,2.25006 6.93747,3.86724 12.79688,4.85156 m 7.03125,13.5 0,30.44532 c 5.95307,-0.79687 10.42963,-2.48437 13.42969,-5.0625 3.04681,-2.57811 4.57024,-5.97654 4.57031,-10.19532 -7e-5,-4.12497 -1.45319,-7.40621 -4.35938,-9.84375 -2.85943,-2.43746 -7.4063,-4.21871 -13.64062,-5.34375"
         style="font-size:144px;fill:#ffffff"
         id="path4019"
         inkscape:connector-curvature="0" />
    </g>
  </g>
</svg>
