<?xml version="1.0" encoding="UTF-8" standalone="no"?>
<!-- Created with Inkscape (http://www.inkscape.org/) -->

<svg
   xmlns:dc="http://purl.org/dc/elements/1.1/"
   xmlns:cc="http://creativecommons.org/ns#"
   xmlns:rdf="http://www.w3.org/1999/02/22-rdf-syntax-ns#"
   xmlns:svg="http://www.w3.org/2000/svg"
   xmlns="http://www.w3.org/2000/svg"
   xmlns:sodipodi="http://sodipodi.sourceforge.net/DTD/sodipodi-0.dtd"
   xmlns:inkscape="http://www.inkscape.org/namespaces/inkscape"
   width="725.43304"
   height="726.8689"
   id="svg2"
   version="1.1"
   inkscape:version="0.48.2 r9819"
   sodipodi:docname="ticket.svg">
  <defs
     id="defs4">
    <linearGradient
       id="linearGradient4316">
      <stop
         style="stop-color:#000000;stop-opacity:1;"
         offset="0"
         id="stop4318" />
      <stop
         style="stop-color:#ffffff;stop-opacity:1;"
         offset="1"
         id="stop4320" />
    </linearGradient>
  </defs>
  <sodipodi:namedview
     id="base"
     pagecolor="#ffffff"
     bordercolor="#666666"
     borderopacity="1.0"
     inkscape:pageopacity="0.0"
     inkscape:pageshadow="2"
     inkscape:zoom="0.98994949"
     inkscape:cx="86.690619"
     inkscape:cy="307.46702"
     inkscape:document-units="px"
     inkscape:current-layer="layer1"
     showgrid="true"
     inkscape:window-width="1920"
     inkscape:window-height="1082"
     inkscape:window-x="0"
     inkscape:window-y="0"
     inkscape:window-maximized="1"
     fit-margin-top="0"
     fit-margin-left="0"
     fit-margin-right="0"
     fit-margin-bottom="0">
    <inkscape:grid
       type="xygrid"
       id="grid2985"
       empspacing="5"
       visible="true"
       enabled="true"
       snapvisiblegridlinesonly="true" />
  </sodipodi:namedview>
  <metadata
     id="metadata7">
    <rdf:RDF>
      <cc:Work
         rdf:about="">
        <dc:format>image/svg+xml</dc:format>
        <dc:type
           rdf:resource="http://purl.org/dc/dcmitype/StillImage" />
        <dc:title></dc:title>
      </cc:Work>
    </rdf:RDF>
  </metadata>
  <g
     inkscape:label="Layer 1"
     inkscape:groupmode="layer"
     id="layer1"
     transform="translate(-212.62721,-694.64564)">
    <path
       style="fill:#ffffff;fill-opacity:1;stroke:#000000;stroke-width:35.43307114;stroke-miterlimit:4;stroke-opacity:1;stroke-dasharray:none"
       d="m 295.6875,712.36218 c -36.20029,0.17342 -65.34375,29.14304 -65.34375,65.34375 l 0,559.31247 c 0,36.2009 29.14304,65.3438 65.34375,65.3438 l 176.93971,0 c 0,-50.8477 40,-100.8477 102.71654,-100.8477 57.28346,0 97.28346,40 97.28346,100.8477 l 182.37279,0 c 36.20071,0 65.34375,-29.1429 65.34375,-65.3438 l 0,-559.31247 c 0,-36.20071 -29.14304,-65.34375 -65.34375,-65.34375 l -192.37279,-0.84764 c 0,40 -40,80 -90,80 -50,0 -100,-40 -100,-80 z"
       id="rect3985"
       inkscape:connector-curvature="0"
       sodipodi:nodetypes="sssscscsccscscs" />
    <path
       style="fill:none;stroke:#000000;stroke-width:10;stroke-linecap:butt;stroke-linejoin:miter;stroke-miterlimit:4;stroke-opacity:1;stroke-dasharray:none"
       d="m 332.62721,1021.5145 60,160 380,0 40,-160 z"
       id="path4081"
       inkscape:connector-curvature="0" />
    <path
       style="fill:none;stroke:#000000;stroke-width:10;stroke-linecap:butt;stroke-linejoin:miter;stroke-miterlimit:4;stroke-opacity:1;stroke-dasharray:none"
       d="m 412.62721,1021.5145 40,-99.99997 280,0 40,99.99997"
       id="path4083"
       inkscape:connector-curvature="0" />
    <path
       style="fill:#000000;stroke:#000000;stroke-width:1px;stroke-linecap:butt;stroke-linejoin:miter;stroke-opacity:1"
       d="m 492.62721,921.51453 20,-60 40,0 -20,60 -40,0"
       id="path4085"
       inkscape:connector-curvature="0" />
    <path
       inkscape:connector-curvature="0"
       id="path4087"
       d="m 552.62721,921.51454 20,-60 40,0 -20,60 -40,0"
       style="fill:#000000;stroke:#000000;stroke-width:1px;stroke-linecap:butt;stroke-linejoin:miter;stroke-opacity:1" />
    <path
       style="fill:#000000;stroke:#000000;stroke-width:1px;stroke-linecap:butt;stroke-linejoin:miter;stroke-opacity:1"
       d="m 612.62721,921.51454 20,-60 40,0 -20,60 -40,0"
       id="path4089"
       inkscape:connector-curvature="0" />
    <flowRoot
       xml:space="preserve"
       id="flowRoot4091"
       style="fill:black;stroke:none;stroke-opacity:1;stroke-width:1px;stroke-linejoin:miter;stroke-linecap:butt;fill-opacity:1;font-family:Sans;font-style:normal;font-weight:normal;font-size:40px;line-height:125%;letter-spacing:0px;word-spacing:0px"><flowRegion
         id="flowRegion4093"><rect
           id="rect4095"
           width="164.28572"
           height="91.428574"
           x="-1008.5714"
           y="138.29747" /></flowRegion><flowPara
         id="flowPara4097" /></flowRoot>    <path
       sodipodi:type="arc"
       style="fill:#000000;fill-opacity:1;stroke:#000000;stroke-width:10;stroke-linejoin:round;stroke-miterlimit:4;stroke-opacity:1;stroke-dasharray:none"
       id="path4099"
       sodipodi:cx="-560"
       sodipodi:cy="106.8689"
       sodipodi:rx="20"
       sodipodi:ry="20"
       d="m -540,106.8689 a 20,20 0 1 1 -40,0 20,20 0 1 1 40,0 z"
       transform="translate(992.62722,1014.6456)" />
    <path
       transform="translate(1072.6272,1014.6456)"
       d="m -540,106.8689 a 20,20 0 1 1 -40,0 20,20 0 1 1 40,0 z"
       sodipodi:ry="20"
       sodipodi:rx="20"
       sodipodi:cy="106.8689"
       sodipodi:cx="-560"
       id="path4101"
       style="fill:#000000;fill-opacity:1;stroke:#000000;stroke-width:10;stroke-linejoin:round;stroke-miterlimit:4;stroke-opacity:1;stroke-dasharray:none"
       sodipodi:type="arc" />
    <path
       sodipodi:type="arc"
       style="fill:#000000;fill-opacity:1;stroke:#000000;stroke-width:10;stroke-linejoin:round;stroke-miterlimit:4;stroke-opacity:1;stroke-dasharray:none"
       id="path4103"
       sodipodi:cx="-560"
       sodipodi:cy="106.8689"
       sodipodi:rx="20"
       sodipodi:ry="20"
       d="m -540,106.8689 a 20,20 0 1 1 -40,0 20,20 0 1 1 40,0 z"
       transform="translate(1152.6272,1014.6456)" />
  </g>
</svg>
