<?xml version="1.0" encoding="UTF-8" standalone="no"?>
<!-- Created with Inkscape (http://www.inkscape.org/) -->

<svg
   xmlns:dc="http://purl.org/dc/elements/1.1/"
   xmlns:cc="http://creativecommons.org/ns#"
   xmlns:rdf="http://www.w3.org/1999/02/22-rdf-syntax-ns#"
   xmlns:svg="http://www.w3.org/2000/svg"
   xmlns="http://www.w3.org/2000/svg"
   xmlns:sodipodi="http://sodipodi.sourceforge.net/DTD/sodipodi-0.dtd"
   xmlns:inkscape="http://www.inkscape.org/namespaces/inkscape"
   width="725.43304"
   height="726.8689"
   id="svg2"
   version="1.1"
   inkscape:version="0.48.2 r9819"
   sodipodi:docname="ticketinspector.svg">
  <defs
     id="defs4">
    <linearGradient
       id="linearGradient4316">
      <stop
         style="stop-color:#000000;stop-opacity:1;"
         offset="0"
         id="stop4318" />
      <stop
         style="stop-color:#ffffff;stop-opacity:1;"
         offset="1"
         id="stop4320" />
    </linearGradient>
    <linearGradient
       id="linearGradient4316-3">
      <stop
         id="stop4318-0"
         offset="0"
         style="stop-color:#000000;stop-opacity:1;" />
      <stop
         id="stop4320-7"
         offset="1"
         style="stop-color:#ffffff;stop-opacity:1;" />
    </linearGradient>
  </defs>
  <sodipodi:namedview
     id="base"
     pagecolor="#ffffff"
     bordercolor="#666666"
     borderopacity="1.0"
     inkscape:pageopacity="0.0"
     inkscape:pageshadow="2"
     inkscape:zoom="0.7"
     inkscape:cx="225.49205"
     inkscape:cy="409.04212"
     inkscape:document-units="px"
     inkscape:current-layer="layer1"
     showgrid="true"
     inkscape:window-width="1920"
     inkscape:window-height="1082"
     inkscape:window-x="0"
     inkscape:window-y="0"
     inkscape:window-maximized="1"
     fit-margin-top="0"
     fit-margin-left="0"
     fit-margin-right="0"
     fit-margin-bottom="0">
    <inkscape:grid
       type="xygrid"
       id="grid2985"
       empspacing="5"
       visible="true"
       enabled="true"
       snapvisiblegridlinesonly="true" />
  </sodipodi:namedview>
  <metadata
     id="metadata7">
    <rdf:RDF>
      <cc:Work
         rdf:about="">
        <dc:format>image/svg+xml</dc:format>
        <dc:type
           rdf:resource="http://purl.org/dc/dcmitype/StillImage" />
        <dc:title></dc:title>
      </cc:Work>
    </rdf:RDF>
  </metadata>
  <g
     inkscape:label="Layer 1"
     inkscape:groupmode="layer"
     id="layer1"
     transform="translate(-212.62721,-694.64564)">
    <path
       style="fill:#ffffff;fill-opacity:1;stroke:#000000;stroke-width:35.43307114000000269;stroke-miterlimit:4;stroke-opacity:1;stroke-dasharray:none"
       d="m 295.6875,712.36218 c -36.20071,0 -65.34375,29.14304 -65.34375,65.34375 l 0,559.31247 c 0,36.2009 29.14304,65.3438 65.34375,65.3438 l 559.3125,0 c 36.20071,0 65.34375,-29.1429 65.34375,-65.3438 l 0,-559.31247 c 0,-36.20071 -29.14304,-65.34375 -65.34375,-65.34375 z"
       id="rect3985"
       inkscape:connector-curvature="0"
       sodipodi:nodetypes="sssssccss" />
    <path
       style="fill:#000000;fill-opacity:1;stroke:#000000;stroke-width:30;stroke-linejoin:round;stroke-miterlimit:4;stroke-opacity:1"
       d="m 635.84596,921.67079 c -20.26954,16.50257 -33.21875,41.66822 -33.21875,69.84375 0,49.70566 40.2944,89.99996 90,89.99996 49.7056,0 90,-40.2943 90,-89.99996 0,-5.80908 -0.57357,-11.4973 -1.625,-17 L 635.84596,921.67079 z"
       id="path3942"
       inkscape:connector-curvature="0" />
    <g
       id="g3948"
       transform="matrix(0.94806202,0.31808554,-0.31808554,0.94806202,1244.3201,338.01561)">
      <rect
         transform="translate(212.62721,694.64564)"
         y="-53.131104"
         x="-600"
         height="60"
         width="160"
         id="rect3944"
         style="fill:#000000;fill-opacity:1;stroke:#000000;stroke-width:30;stroke-linejoin:round;stroke-miterlimit:4;stroke-opacity:1;stroke-dasharray:none" />
      <path
         transform="translate(212.62721,694.64564)"
         inkscape:connector-curvature="0"
         id="path3946"
         d="m -520,6.8688965 -180,0"
         style="fill:none;stroke:#000000;stroke-width:10;stroke-linecap:butt;stroke-linejoin:miter;stroke-miterlimit:4;stroke-opacity:1;stroke-dasharray:none" />
    </g>
    <rect
       style="fill:#000000;fill-opacity:1;stroke:#000000;stroke-width:10;stroke-linejoin:round;stroke-miterlimit:4;stroke-opacity:1;stroke-dasharray:none"
       id="rect3952"
       width="260"
       height="220"
       x="569.77002"
       y="1085.3241"
       ry="40.000011" />
    <rect
       style="fill:#000000;fill-opacity:1;stroke:#000000;stroke-width:10;stroke-linejoin:round;stroke-miterlimit:4;stroke-opacity:1;stroke-dasharray:none"
       id="rect3954"
       width="60"
       height="200"
       x="1169.856"
       y="387.83884"
       transform="matrix(0.72819999,0.6853647,-0.6853647,0.72819999,0,0)" />
    <rect
       transform="matrix(-0.72819999,0.6853647,0.6853647,0.72819999,0,0)"
       y="1057.4675"
       x="460.01227"
       height="200"
       width="60"
       id="rect3956"
       style="fill:#000000;fill-opacity:1;stroke:#000000;stroke-width:10;stroke-linejoin:round;stroke-miterlimit:4;stroke-opacity:1;stroke-dasharray:none" />
    <g
       id="layer1-4"
       inkscape:label="Layer 1"
       transform="matrix(0.38291156,0,0,0.38291156,182.72871,508.65597)">
      <path
         sodipodi:nodetypes="sssscscsccscscs"
         inkscape:connector-curvature="0"
         id="rect3985-8"
         d="m 295.6875,712.36218 c -36.20029,0.17342 -65.34375,29.14304 -65.34375,65.34375 l 0,559.31247 c 0,36.2009 29.14304,65.3438 65.34375,65.3438 l 176.93971,0 c 0,-50.8477 40,-100.8477 102.71654,-100.8477 57.28346,0 97.28346,40 97.28346,100.8477 l 182.37279,0 c 36.20071,0 65.34375,-29.1429 65.34375,-65.3438 l 0,-559.31247 c 0,-36.20071 -29.14304,-65.34375 -65.34375,-65.34375 l -192.37279,-0.84764 c 0,40 -40,80 -90,80 -50,0 -100,-40 -100,-80 z"
         style="fill:#ffffff;fill-opacity:1;stroke:#000000;stroke-width:35.43307114;stroke-miterlimit:4;stroke-opacity:1;stroke-dasharray:none" />
      <path
         inkscape:connector-curvature="0"
         id="path4081"
         d="m 332.62721,1021.5145 60,160 380,0 40,-160 z"
         style="fill:none;stroke:#000000;stroke-width:10;stroke-linecap:butt;stroke-linejoin:miter;stroke-miterlimit:4;stroke-opacity:1;stroke-dasharray:none" />
      <path
         inkscape:connector-curvature="0"
         id="path4083"
         d="m 412.62721,1021.5145 40,-99.99997 280,0 40,99.99997"
         style="fill:none;stroke:#000000;stroke-width:10;stroke-linecap:butt;stroke-linejoin:miter;stroke-miterlimit:4;stroke-opacity:1;stroke-dasharray:none" />
      <path
         inkscape:connector-curvature="0"
         id="path4085"
         d="m 492.62721,921.51453 20,-60 40,0 -20,60 -40,0"
         style="fill:#000000;stroke:#000000;stroke-width:1px;stroke-linecap:butt;stroke-linejoin:miter;stroke-opacity:1" />
      <path
         style="fill:#000000;stroke:#000000;stroke-width:1px;stroke-linecap:butt;stroke-linejoin:miter;stroke-opacity:1"
         d="m 552.62721,921.51454 20,-60 40,0 -20,60 -40,0"
         id="path4087"
         inkscape:connector-curvature="0" />
      <path
         inkscape:connector-curvature="0"
         id="path4089"
         d="m 612.62721,921.51454 20,-60 40,0 -20,60 -40,0"
         style="fill:#000000;stroke:#000000;stroke-width:1px;stroke-linecap:butt;stroke-linejoin:miter;stroke-opacity:1" />
      <flowRoot
         style="font-size:40px;font-style:normal;font-weight:normal;line-height:125%;letter-spacing:0px;word-spacing:0px;fill:#000000;fill-opacity:1;stroke:none;font-family:Sans"
         id="flowRoot4091"
         xml:space="preserve"><flowRegion
           id="flowRegion4093"><rect
             y="138.29747"
             x="-1008.5714"
             height="91.428574"
             width="164.28572"
             id="rect4095" /></flowRegion><flowPara
           id="flowPara4097" /></flowRoot>      <path
         transform="translate(992.62722,1014.6456)"
         d="m -540,106.8689 c 0,11.04569 -8.95431,20 -20,20 -11.04569,0 -20,-8.95431 -20,-20 0,-11.045699 8.95431,-20.000004 20,-20.000004 11.04569,0 20,8.954305 20,20.000004 z"
         sodipodi:ry="20"
         sodipodi:rx="20"
         sodipodi:cy="106.8689"
         sodipodi:cx="-560"
         id="path4099"
         style="fill:#000000;fill-opacity:1;stroke:#000000;stroke-width:10;stroke-linejoin:round;stroke-miterlimit:4;stroke-opacity:1;stroke-dasharray:none"
         sodipodi:type="arc" />
      <path
         sodipodi:type="arc"
         style="fill:#000000;fill-opacity:1;stroke:#000000;stroke-width:10;stroke-linejoin:round;stroke-miterlimit:4;stroke-opacity:1;stroke-dasharray:none"
         id="path4101"
         sodipodi:cx="-560"
         sodipodi:cy="106.8689"
         sodipodi:rx="20"
         sodipodi:ry="20"
         d="m -540,106.8689 c 0,11.04569 -8.95431,20 -20,20 -11.04569,0 -20,-8.95431 -20,-20 0,-11.045699 8.95431,-20.000004 20,-20.000004 11.04569,0 20,8.954305 20,20.000004 z"
         transform="translate(1072.6272,1014.6456)" />
      <path
         transform="translate(1152.6272,1014.6456)"
         d="m -540,106.8689 c 0,11.04569 -8.95431,20 -20,20 -11.04569,0 -20,-8.95431 -20,-20 0,-11.045699 8.95431,-20.000004 20,-20.000004 11.04569,0 20,8.954305 20,20.000004 z"
         sodipodi:ry="20"
         sodipodi:rx="20"
         sodipodi:cy="106.8689"
         sodipodi:cx="-560"
         id="path4103"
         style="fill:#000000;fill-opacity:1;stroke:#000000;stroke-width:10;stroke-linejoin:round;stroke-miterlimit:4;stroke-opacity:1;stroke-dasharray:none"
         sodipodi:type="arc" />
    </g>
  </g>
</svg>
